<svg width="101" height="101" viewBox="0 0 101 101" fill="none" xmlns="http://www.w3.org/2000/svg">
<path d="M0 19C0 8.50659 8.50659 0 19 0H51C78.6142 0 101 22.3858 101 50V82C101 92.4934 92.4934 101 82 101H50C22.3858 101 0 78.6142 0 51V19Z" fill="white"/>
<rect x="90.4563" y="76.4926" width="14.5383" height="14.5383" transform="rotate(90.0426 90.4563 76.4926)" fill="#0E9254"/>
<rect x="90.5759" y="59.1226" width="14.5383" height="14.5383" transform="rotate(90.0426 90.5759 59.1226)" fill="#13AC64"/>
<rect x="73.1859" y="59.0919" width="14.5383" height="14.5383" transform="rotate(90.0426 73.1859 59.0919)" fill="#15BF6F"/>
<rect x="55.739" y="58.9719" width="14.5383" height="14.5383" transform="rotate(90.0426 55.739 58.9719)" fill="#5DDBA0"/>
<rect x="73.4135" y="41.8117" width="14.5383" height="14.5383" transform="rotate(90.0426 73.4135 41.8117)" fill="#5DDBA0"/>
<rect x="73.0863" y="76.373" width="14.5383" height="14.5383" transform="rotate(90.0426 73.0863 76.373)" fill="#13AC64"/>
<rect x="90.6954" y="41.7527" width="14.5383" height="14.5383" transform="rotate(90.0426 90.6954 41.7527)" fill="#15BF6F"/>
<rect x="90.8151" y="24.3754" width="14.5383" height="14.5383" transform="rotate(90.0426 90.8151 24.3754)" fill="#5DDBA0"/>
<rect x="38.0651" y="76.132" width="14.5383" height="14.5383" transform="rotate(90.0426 38.0651 76.132)" fill="#5DDBA0"/>
<rect x="55.62" y="76.2528" width="14.5383" height="14.5383" transform="rotate(90.0426 55.62 76.2528)" fill="#15BF6F"/>
<rect x="9.42346" y="24.5138" width="14.2417" height="14.2417" transform="rotate(-90.3518 9.42346 24.5138)" fill="#451272"/>
<rect x="9.42346" y="41.5298" width="14.2417" height="14.2417" transform="rotate(-90.3518 9.42346 41.5298)" fill="#552D79"/>
<rect x="26.4587" y="41.4426" width="14.2417" height="14.2417" transform="rotate(-90.3518 26.4587 41.4426)" fill="#634D78"/>
<rect x="43.55" y="41.4426" width="14.2417" height="14.2417" transform="rotate(-90.3518 43.55 41.4426)" fill="#70657B"/>
<rect x="26.3523" y="58.3715" width="14.2417" height="14.2417" transform="rotate(-90.3518 26.3523 58.3715)" fill="#70657B"/>
<rect x="26.4397" y="24.5138" width="14.2417" height="14.2417" transform="rotate(-90.3518 26.4397 24.5138)" fill="#552D79"/>
<path d="M9.42346 58.5458L9.33603 44.3043L23.5775 44.2169L23.6649 58.4583L9.42346 58.5458Z" fill="#634D78"/>
<rect x="9.42346" y="75.569" width="14.2417" height="14.2417" transform="rotate(-90.3518 9.42346 75.569)" fill="#70657B"/>
<rect x="60.7476" y="24.5138" width="14.2417" height="14.2417" transform="rotate(-90.3518 60.7476 24.5138)" fill="#70657B"/>
<rect x="43.55" y="24.5138" width="14.2417" height="14.2417" transform="rotate(-90.3518 43.55 24.5138)" fill="#634D78"/>
</svg>
